Coordinates
version=1
nRows=19
nColumns=36
inDegrees=yes

Units are S.I. units (second, meters, Newtons, ...)
If the header above contains a line with 'inDegrees', this indicates whether rotational values are in degrees (yes) or radians (no).

endheader
time	pelvis_tilt	pelvis_list	pelvis_rotation	pelvis_tx	pelvis_ty	pelvis_tz	hip_flexion_r	hip_adduction_r	hip_rotation_r	knee_angle_r	knee_angle_r_beta	ankle_angle_r	subtalar_angle_r	mtp_angle_r	hip_flexion_l	hip_adduction_l	hip_rotation_l	knee_angle_l	knee_angle_l_beta	ankle_angle_l	subtalar_angle_l	mtp_angle_l	lumbar_extension	lumbar_bending	lumbar_rotation	arm_flex_r	arm_add_r	arm_rot_r	elbow_flex_r	pro_sup_r	arm_flex_l	arm_add_l	arm_rot_l	elbow_flex_l	pro_sup_l
      5.50000000	    -18.64352052	      4.81082375	      6.47943952	      0.53554451	      0.79629439	     -0.06757357	     64.22519499	      9.48861520	     10.67875133	     74.89533180	      1.30717013	     30.25993720	    -16.07810591	     -7.49999987	     65.30340502	     -8.19832677	      4.41595594	     20.44140104	      0.35676975	    -10.84220823	     -9.17278202	     -7.49999987	    -33.72190421	      2.08423567	      0.07001292	     67.53710135	      3.21472742	     69.34018155	    127.16116052	     93.34082916	     68.53855922	      5.71205861	     79.52511996	    125.02909917	     82.24852286
      5.51666670	    -18.63491087	      4.85488272	      6.84724259	      0.53817004	      0.78971942	     -0.07056045	     64.73340784	      9.59216963	     10.78900211	     76.20357654	      1.33000331	     30.29112816	    -17.29453594	     -7.49999987	     65.45499238	     -7.82935083	      4.78921338	     20.68743080	      0.36106378	    -10.56532628	     -9.45766073	     -7.49999987	    -34.28645409	      2.34993761	     -0.28230209	     67.93721634	      3.09625453	     70.06379915	    127.20632866	     92.09212204	     68.60568827	      5.52561516	     79.81270364	    125.10343102	     82.05718861
      5.53333330	    -18.45196228	      4.87215936	      6.98108866	      0.53697814	      0.78431855	     -0.07055512	     65.13802010	     10.06618481	     11.06016595	     77.59566817	      1.35429989	     30.49198421	    -17.89035522	     -7.49999987	     65.65650743	     -7.72388899	      4.96626395	     20.99489622	      0.36643007	    -10.36958303	     -9.27721099	     -7.49999987	    -34.85212577	      2.37067935	     -0.46492319	     68.86574221	      2.78435834	     70.24948228	    127.30425895	     95.06174422	     68.78008631	      5.45079847	     79.72416542	    125.22643868	     85.58828861
      5.55000000	    -18.43393456	      4.90021761	      7.05488974	      0.53251274	      0.78149997	     -0.06699685	     65.90361071	     10.61223077	     11.32241267	     78.81202952	      1.37552941	     30.71839827	    -18.29594520	     -7.49999987	     66.01395643	     -7.78929876	      5.12090734	     21.26065725	      0.37106847	    -10.46270410	     -9.23323170	     -7.49999987	    -35.41002462	      2.23666363	     -0.51807996	     69.34143773	      2.72714407	     70.28587139	    127.32533299	     95.07400874	     69.51599210	      5.40800160	     79.45933269	    125.32624175	     85.62454219
      5.56666670	    -18.35802878	      4.78559609	      6.71248777	      0.53221197	      0.77806429	     -0.06656731	     66.35581044	     11.48712100	     11.44897804	     79.63549158	      1.38990153	     30.70014983	    -18.74160623	     -7.49999987	     65.93864585	     -8.27182103	      5.41019679	     21.24220119	      0.37074635	    -10.30922046	     -9.33586973	     -7.49999987	    -35.93574335	      2.11634587	     -0.37550064	     69.73936484	      2.86955446	     70.38327284	    127.38976279	     94.75588239	     70.23308197	      5.56302960	     79.31116668	    125.48854729	     85.44347791
      5.58333330	    -18.18047569	      4.68481242	      6.48473499	      0.53219108	      0.77614687	     -0.06674081	     66.43761232	     12.02575842	     11.50640946	     80.06896447	      1.39746706	     30.48762174	    -19.47176834	     -7.49999987	     65.87979325	     -8.58286556	      5.56440227	     21.39714570	      0.37345064	    -10.10322470	     -9.10635560	     -7.49999987	    -36.50211648	      1.96590055	     -0.24526834	     70.16742511	      2.85411083	     70.53599568	    127.55281885	     94.54386454	     70.79865299	      5.58988570	     79.31665107	    125.49993241	     85.27943739
      5.60000000	    -18.32066199	      4.58344449	      6.26604898	      0.52839682	      0.77219155	     -0.06385859	     67.08243569	     12.55230065	     11.53174402	     80.50261818	      1.40503574	     30.56432301	    -19.72347552	     -7.49999987	     66.13215858	     -8.92051413	      5.57434458	     21.39906287	      0.37348410	     -9.87272495	     -9.14672792	     -7.49999987	    -36.76479150	      1.79854530	     -0.13704695	     70.87375749	      2.99080645	     70.34049155	    127.47552257	     94.58287091	     71.26914254	      5.40860717	     79.09290428	    125.35608412	     85.35035437
      5.61666670	    -18.30940279	      4.28251761	      6.08568368	      0.52848712	      0.76993502	     -0.06426454	     67.30110760	     13.12787641	     11.55101523	     80.61471216	      1.40699215	     30.53097467	    -20.30956022	     -7.49999987	     66.32906649	     -9.24877269	      5.23549949	     21.35936395	      0.37279123	     -9.68993084	     -8.80846169	     -7.49999987	    -37.15380696	      1.92891710	      0.01991033	     71.60592698	      3.04831257	     70.56885473	    127.48815583	     94.37832841	     71.56175814	      5.09272255	     79.04014953	    125.40818480	     85.22239066
      5.63333330	    -18.70534823	      3.96921282	      6.22097556	      0.52797770	      0.76204132	     -0.06520987	     68.32503764	     13.42249512	     11.46612057	     81.21041850	      1.41738919	     31.03788757	    -19.95962060	     -7.49999987	     67.31271344	     -9.32287009	      5.30212040	     22.12458052	      0.38614678	     -8.75774929	     -8.38059008	     -7.49999987	    -36.91399150	      2.26210071	     -0.09630491	     72.02368219	      3.24078450	     70.69750218	    127.51577837	     95.79384963	     71.62541056	      4.79020099	     78.91765592	    125.84670026	     88.20873604
      5.65000000	    -18.75308861	      3.69626941	      6.18126795	      0.52789816	      0.76473774	     -0.06587118	     68.66917219	     13.62261738	     11.29013539	     81.27594723	      1.41853288	     30.34267906	    -20.25965155	     -7.49999987	     67.51992658	     -9.36920018	      5.43354590	     22.61465170	      0.39470013	     -8.20872911	     -8.24968726	     -7.49999987	    -37.14356777	      2.32669563	     -0.12498032	     71.94546883	      3.33794070	     70.87041175	    127.76973376	     94.97172466	     71.77515167	      4.77516047	     78.92066541	    125.90680462	     87.45490819
      5.66666670	    -18.99249173	      3.37523070	      6.15946307	      0.52727048	      0.76164395	     -0.06593139	     69.08808488	     13.81426561	     11.08630727	     81.51218814	      1.42265606	     30.10645931	    -20.35496905	     -7.49999987	     67.97759826	     -9.43201359	      5.76992347	     23.39548506	      0.40832824	     -7.41435938	     -7.92782619	     -7.49999987	    -37.14072010	      2.50375219	     -0.04270408	     71.50391914	      3.25098267	     70.85668431	    128.16160840	     97.00963742	     72.00849544	      4.98200477	     79.23432475	    126.10901598	     89.42063769
      5.68333330	    -19.05433363	      3.20599304	      6.23697397	      0.52679770	      0.75978275	     -0.06652756	     69.33150659	     13.99920534	     11.08770008	     81.53629029	      1.42307673	     29.98787603	    -20.32789764	     -7.49999987	     68.07673246	     -9.38602726	      5.94209313	     23.39979017	      0.40840338	     -7.16607828	     -7.90296709	     -7.49999987	    -37.18004597	      2.57991090	     -0.13597420	     71.19474925	      3.29077714	     70.69934181	    128.21345096	     96.05118506	     72.07415093	      4.94459477	     79.25583155	    126.22537658	     88.84081016
      5.70000000	    -18.99932521	      2.95854162	      6.35939149	      0.52620330	      0.76190622	     -0.06634439	     69.18187570	     14.11895419	     11.00054610	     81.31677337	      1.41924543	     29.82222938	    -20.79707856	     -7.49999987	     68.01044685	     -9.27983391	      6.33139501	     23.18020531	      0.40457090	     -7.09805851	     -7.59382001	     -7.49999987	    -37.44853135	      2.79827942	     -0.08433942	     70.70099617	      3.34495204	     70.42657896	    128.02543145	     95.55262919	     71.99404021	      5.12765105	     79.25931857	    126.07182297	     88.22238224
      5.71666670	    -18.99903222	      2.83857895	      6.52408614	      0.52584367	      0.75973322	     -0.06687931	     69.36739715	     14.18431029	     10.98852171	     81.45689761	      1.42169106	     29.99812081	    -20.83193913	     -7.49999987	     68.17407621	     -9.14815724	      6.78937105	     23.40960556	      0.40857469	     -6.79080846	     -7.66213626	     -7.49999987	    -37.61147418	      2.97500996	     -0.06939790	     70.36676033	      3.38257723	     70.36268678	    127.99313360	     94.93425798	     72.02553777	      5.22170787	     79.59746628	    126.35817972	     87.82554628
      5.73333330	    -19.07618720	      2.69221250	      6.47213526	      0.52499791	      0.75948215	     -0.06664133	     69.47907517	     14.31676467	     10.87918848	     81.29064640	      1.41878943	     29.92125478	    -20.83301922	     -7.49999987	     68.42385947	     -9.20543516	      7.20031972	     23.66147715	      0.41297068	     -6.57806225	     -7.90925582	     -7.49999987	    -37.65143434	      3.10413000	      0.12102827	     70.19699988	      3.44294971	     70.33139258	    127.81629699	     94.80582051	     72.08243980	      5.34806867	     79.51913258	    126.41171911	     87.60042959
      5.75000000	    -19.10322696	      2.59711728	      6.47121032	      0.52117108	      0.75879981	     -0.06347651	     69.64427864	     14.49063576	     10.78439736	     81.19612376	      1.41713970	     29.85178753	    -20.67691333	     -7.49999987	     68.72094665	     -9.31288527	      7.24886318	     23.64122277	      0.41261718	     -6.42291025	     -7.81169519	     -7.49999987	    -37.74103612	      2.96954215	      0.16682259	     70.30474970	      3.53463649	     70.20037188	    127.68259383	     94.89796958	     72.36179687	      5.48866789	     79.35396574	    126.40329355	     87.67247097
      5.76666670	    -19.05880242	      2.37210188	      6.60346862	      0.52106895	      0.76093412	     -0.06393459	     69.48886609	     14.58397616	     10.63699550	     80.86202192	      1.41130852	     29.75705628	    -21.01849141	     -7.49999987	     68.96891561	     -9.34973456	      7.35650145	     23.75464241	      0.41459672	     -6.16699627	     -7.18194791	     -7.49999987	    -37.84531413	      3.09663552	      0.41546907	     70.28066826	      3.43813674	     69.76160320	    127.57196666	     98.46487287	     72.62793943	      5.72509354	     79.03059724	    126.10873958	     90.65499450
      5.78333330	    -18.98842857	      2.28209752	      6.49997778	      0.52119624	      0.76383567	     -0.06366730	     69.15990950	     14.80460037	     10.74414559	     80.32504891	      1.40193658	     29.71508859	    -20.96123895	     -7.49999987	     68.79925369	     -9.52567013	      7.35283951	     23.61864166	      0.41222306	     -6.07046090	     -6.89999322	     -7.49999987	    -38.04958435	      2.96635176	      0.49433199	     70.40382256	      3.33501736	     69.70788309	    127.52631518	     97.43391565	     72.54202059	      5.60647539	     79.06513774	    126.14944409	     89.87314929
      5.80000000	    -18.74956795	      2.21087961	      6.35014797	      0.52065337	      0.76639189	     -0.06304598	     68.56288698	     14.88429039	     10.72696457	     79.58216283	      1.38897077	     29.31407702	    -21.08195006	     -7.49999987	     68.43569763	     -9.65003128	      7.42712210	     23.49014846	      0.40998043	     -5.78508073	     -7.10788004	     -7.49999987	    -38.46477173	      2.78614449	      0.66109667	     70.70850200	      3.15476262	     69.60993632	    127.60064276	     96.93727039	     72.54318974	      5.42079543	     79.51171693	    126.28098478	     89.28465999
